<svg width="23" height="24" viewBox="0 0 23 24" fill="none" xmlns="http://www.w3.org/2000/svg">
<path d="M22.6968 11.8426C22.6978 11.0536 22.631 10.2659 22.4974 9.48828H11.5781V13.9476H17.8322C17.7042 14.6599 17.4333 15.3388 17.0359 15.9435C16.6384 16.5482 16.1227 17.0662 15.5197 17.4662V20.3609H19.2521C21.4376 18.3459 22.6968 15.366 22.6968 11.8426Z" fill="#4285F4"/>
<path d="M11.578 23.1575C14.7027 23.1575 17.3336 22.1315 19.2521 20.3625L15.5196 17.4679C14.4807 18.1723 13.1428 18.5743 11.578 18.5743C8.55797 18.5743 5.9946 16.5384 5.07796 13.7949H1.23291V16.778C2.19661 18.6957 3.67435 20.3078 5.50113 21.4343C7.32791 22.5608 9.43185 23.1574 11.578 23.1575Z" fill="#34A853"/>
<path d="M5.07797 13.796C4.59337 12.3584 4.59337 10.8016 5.07797 9.36395V6.38086H1.23291C0.422213 7.99407 0 9.77451 0 11.58C0 13.3854 0.422213 15.1659 1.23291 16.7791L5.07797 13.796Z" fill="#FBBC04"/>
<path d="M11.578 4.58395C13.2293 4.55697 14.8248 5.18085 16.0197 6.32073L19.3244 3.01601C17.2289 1.04778 14.4528 -0.0328167 11.578 0.000759663C9.43185 0.000857478 7.32791 0.597466 5.50113 1.72398C3.67435 2.85049 2.19661 4.46257 1.23291 6.38023L5.07796 9.36333C5.9946 6.61985 8.55797 4.58395 11.578 4.58395Z" fill="#EA4335"/>
</svg>
